<?xml version="1.0" encoding="UTF-8" standalone="no"?><!-- Generator: Gravit.io --><svg xmlns="http://www.w3.org/2000/svg" xmlns:xlink="http://www.w3.org/1999/xlink" style="isolation:isolate" viewBox="734 326 195.236 48" width="195.236pt" height="48pt"><defs><clipPath id="_clipPath_8tbwFJLO47xOME0h4bCrrq5tN1H4MZ9Y"><rect x="734" y="326" width="195.236" height="48"/></clipPath></defs><g clip-path="url(#_clipPath_8tbwFJLO47xOME0h4bCrrq5tN1H4MZ9Y)"><g><path d=" M 769.6 371.9 C 769.6 373 768.7 374 767.5 374 L 736.1 374 C 735 374 734 373.1 734 371.9 L 734 332.7 C 734 331.6 734.9 330.6 736.1 330.6 L 743.3 330.6 L 743.3 334.5 L 760.3 334.5 L 760.3 330.6 L 767.5 330.6 C 768.6 330.6 769.6 331.5 769.6 332.7 L 769.6 371.9 Z " fill="rgb(250,204,32)"/></g><path d=" M 757.7 334.5 C 753.5 344.9 744.8 353 734 356.3 L 734 332.7 C 734 331.6 734.9 330.6 736.1 330.6 L 743.3 330.6 L 743.3 334.5 L 757.7 334.5 Z " fill="none"/><g><rect x="737.9" y="334.5" width="27.9" height="35.6" transform="matrix(1,0,0,1,0,0)" fill="rgb(255,255,255)"/></g><g><rect x="737.9" y="370.1" width="27.9" height="0.6" transform="matrix(1,0,0,1,0,0)" fill="rgb(243,238,228)"/></g><g><rect x="737.9" y="370.7" width="27.9" height="0.6" transform="matrix(1,0,0,1,0,0)" fill="rgb(232,220,202)"/></g><path d=" M 751.8 326 C 750.5 326 749.5 327 749.5 328.3 C 749.5 329.6 750.5 330.6 751.8 330.6 C 753.1 330.6 754.1 329.6 754.1 328.3 C 754.1 327 753.1 326 751.8 326 Z  M 751.8 329.7 C 751 329.7 750.4 329.1 750.4 328.3 C 750.4 327.5 751 326.9 751.8 326.9 C 752.6 326.9 753.2 327.5 753.2 328.3 C 753.2 329.1 752.6 329.7 751.8 329.7 Z " fill="rgb(64,74,76)"/><g><path d=" M 754.1 328.3 C 754.1 329.6 753.1 330.6 751.8 330.6 C 750.5 330.6 749.5 329.6 749.5 328.3 L 743.3 328.3 L 743.3 334.5 L 760.3 334.5 L 760.3 328.3 L 754.1 328.3 Z " fill="rgb(64,74,76)"/></g><g><path d=" M 754.4 369.5 L 760.8 367.1 L 756.7 363 L 754.4 369.5 Z " fill="rgb(232,220,202)"/><path d=" M 755.3 367 L 754.4 369.5 L 756.8 368.6 L 755.3 367 Z " fill="rgb(105,86,82)"/><path d=" M 757 362.7 C 756.3 363.4 756.3 364.4 756.8 364.9 C 757.4 365.5 758.4 365.4 759 364.7 L 775.2 348.5 L 773.2 346.5 L 757 362.7 Z " fill="rgb(98,190,231)"/><path d=" M 759.1 364.8 C 758.4 365.5 758.4 366.5 758.9 367 C 759.5 367.6 760.5 367.5 761.1 366.8 L 777.3 350.6 L 775.3 348.6 L 759.1 364.8 Z " fill="rgb(48,167,191)"/><rect x="775.111" y="345.329" width="1" height="5.8" transform="matrix(0.707,-0.707,0.707,0.707,-19.064,650.433)" fill="rgb(105,86,82)"/><path d=" M 775 344.8 L 774 345.8 L 778.1 349.9 L 779.1 348.9 C 779.4 348.6 779.4 348 779.1 347.7 L 776.2 344.8 C 775.9 344.4 775.3 344.4 775 344.8 Z " fill="rgb(247,169,11)"/></g><g><g><rect x="741.4" y="339.2" width="1.5" height="2.3" transform="matrix(1,0,0,1,0,0)" fill="rgb(224,225,229)"/><rect x="745" y="339.2" width="17.3" height="2.3" transform="matrix(1,0,0,1,0,0)" fill="rgb(224,225,229)"/></g><g><rect x="741.4" y="344.1" width="1.5" height="2.3" transform="matrix(1,0,0,1,0,0)" fill="rgb(224,225,229)"/><rect x="745" y="344.1" width="17.3" height="2.3" transform="matrix(1,0,0,1,0,0)" fill="rgb(224,225,229)"/></g><g><rect x="741.4" y="348.9" width="1.5" height="2.3" transform="matrix(1,0,0,1,0,0)" fill="rgb(224,225,229)"/><rect x="745" y="348.9" width="17.3" height="2.3" transform="matrix(1,0,0,1,0,0)" fill="rgb(224,225,229)"/></g><g><rect x="741.4" y="353.7" width="1.5" height="2.3" transform="matrix(1,0,0,1,0,0)" fill="rgb(224,225,229)"/><rect x="745" y="353.7" width="17.3" height="2.3" transform="matrix(1,0,0,1,0,0)" fill="rgb(224,225,229)"/></g></g><path d=" M 754.1 328.3 C 754.1 329.2 753.6 330 752.8 330.4 C 752.8 330.4 752.8 330.4 752.8 330.4 L 757.8 330.4 C 758.4 330.4 759 330.9 759 331.4 C 759 332 758.5 332.4 757.8 332.4 L 752.8 332.4 C 752.2 332.4 751.6 332.9 751.6 333.4 C 751.6 334 752.1 334.4 752.8 334.4 L 760.3 334.4 L 760.3 328.2 L 754.1 328.2 L 754.1 328.3 Z " fill="rgb(77,85,86)"/><path d=" M 793.322 345.97 L 793.322 345.97 Q 793.832 344.546 794.922 343.034 L 794.922 343.034 L 794.922 343.034 Q 796.012 341.523 797.471 340.494 L 797.471 340.494 L 797.471 340.494 Q 798.93 339.466 800.459 339.466 L 800.459 339.466 L 800.459 339.466 Q 801.953 339.466 803.307 340.16 L 803.307 340.16 L 803.307 340.16 Q 804.66 340.855 805.504 342.217 L 805.504 342.217 L 805.504 342.217 Q 806.348 343.579 806.348 345.46 L 806.348 345.46 L 806.348 345.46 Q 806.348 345.952 806.181 346.55 L 806.181 346.55 L 806.181 346.55 Q 806.014 347.148 805.662 347.578 L 805.662 347.578 L 805.662 347.578 Q 805.311 348.009 804.818 348.009 L 804.818 348.009 L 804.818 348.009 Q 804.414 348.009 804.221 347.78 L 804.221 347.78 L 804.221 347.78 Q 804.027 347.552 803.966 347.2 L 803.966 347.2 L 803.966 347.2 Q 803.904 346.849 803.852 346.216 L 803.852 346.216 L 803.852 346.216 Q 803.781 345.161 803.579 344.467 L 803.579 344.467 L 803.579 344.467 Q 803.377 343.773 802.656 343.272 L 802.656 343.272 L 802.656 343.272 Q 801.936 342.771 800.477 342.771 L 800.477 342.771 L 800.477 342.771 Q 798.49 342.771 797.075 344.616 L 797.075 344.616 L 797.075 344.616 Q 795.66 346.462 794.939 348.897 L 794.939 348.897 L 794.939 348.897 Q 794.219 351.331 794.219 352.913 L 794.219 352.913 L 794.219 352.913 Q 794.219 354.46 795.045 355.603 L 795.045 355.603 L 795.045 355.603 Q 795.871 356.745 797.181 357.343 L 797.181 357.343 L 797.181 357.343 Q 798.49 357.941 799.896 357.941 L 799.896 357.941 L 799.896 357.941 Q 801.162 357.941 802.691 357.738 L 802.691 357.738 L 802.691 357.738 Q 804.221 357.536 805.17 357.114 L 805.17 357.114 L 805.17 357.114 Q 805.803 356.517 806.11 356.279 L 806.11 356.279 L 806.11 356.279 Q 806.418 356.042 806.559 356.042 L 806.559 356.042 L 806.559 356.042 Q 807.121 356.042 807.464 356.543 L 807.464 356.543 L 807.464 356.543 Q 807.807 357.044 807.807 357.8 L 807.807 357.8 L 807.807 357.8 Q 807.807 359.03 806.585 359.813 L 806.585 359.813 L 806.585 359.813 Q 805.363 360.595 803.614 360.929 L 803.614 360.929 L 803.614 360.929 Q 801.865 361.263 800.195 361.263 L 800.195 361.263 L 800.195 361.263 Q 796.609 361.263 794.228 359.435 L 794.228 359.435 L 794.228 359.435 Q 791.846 357.607 791.846 352.966 L 791.846 352.966 L 791.846 352.966 Q 791.846 351.314 792.232 349.661 L 792.232 349.661 L 792.232 349.661 Q 792.619 348.009 793.322 345.97 L 793.322 345.97 L 793.322 345.97 Z  M 814.574 361.017 L 814.574 361.017 Q 814.398 361.017 814.082 361.175 L 814.082 361.175 L 814.082 361.175 Q 813.941 361.245 813.774 361.307 L 813.774 361.307 L 813.774 361.307 Q 813.607 361.368 813.449 361.368 L 813.449 361.368 L 813.449 361.368 Q 813.08 361.368 812.605 361.157 L 812.605 361.157 L 812.605 361.157 Q 812.131 360.946 811.788 360.525 L 811.788 360.525 L 811.788 360.525 Q 811.445 360.103 811.445 359.523 L 811.445 359.523 L 811.445 359.523 Q 811.445 359.382 811.507 357.879 L 811.507 357.879 L 811.507 357.879 Q 811.568 356.376 811.674 346.919 L 811.674 346.919 L 811.674 346.919 Q 811.674 344.581 812.017 342.63 L 812.017 342.63 L 812.017 342.63 Q 812.359 340.679 813.203 340.38 L 813.203 340.38 L 813.203 340.38 Q 814.469 339.976 815.919 339.765 L 815.919 339.765 L 815.919 339.765 Q 817.369 339.554 818.582 339.554 L 818.582 339.554 L 818.582 339.554 Q 819.338 339.554 820.182 339.967 L 820.182 339.967 L 820.182 339.967 Q 821.025 340.38 821.605 341.145 L 821.605 341.145 L 821.605 341.145 Q 822.186 341.909 822.186 342.911 L 822.186 342.911 L 822.186 342.911 Q 822.186 344.81 821.061 346.445 L 821.061 346.445 L 821.061 346.445 Q 823.064 347.218 824.216 348.774 L 824.216 348.774 L 824.216 348.774 Q 825.367 350.329 825.367 352.65 L 825.367 352.65 L 825.367 352.65 Q 825.367 355.462 823.979 357.361 L 823.979 357.361 L 823.979 357.361 Q 822.59 359.259 820.287 360.182 L 820.287 360.182 L 820.287 360.182 Q 817.984 361.105 815.225 361.105 L 815.225 361.105 L 815.225 361.105 Q 815.137 361.105 814.935 361.061 L 814.935 361.061 L 814.935 361.061 Q 814.732 361.017 814.574 361.017 L 814.574 361.017 L 814.574 361.017 Z  M 820.182 343.456 L 820.182 343.456 Q 820.182 343.175 819.417 343.017 L 819.417 343.017 L 819.417 343.017 Q 818.652 342.859 817.563 342.859 L 817.563 342.859 L 817.563 342.859 Q 817.035 342.859 816.165 342.955 L 816.165 342.955 L 816.165 342.955 Q 815.295 343.052 814.601 343.28 L 814.601 343.28 L 814.601 343.28 Q 813.906 343.509 813.889 343.878 L 813.889 343.878 L 813.783 346.638 L 813.783 346.638 Q 814.188 346.638 814.917 346.462 L 814.917 346.462 L 814.917 346.462 Q 815.646 346.286 818.02 345.53 L 818.02 345.53 L 818.02 345.53 Q 820.182 344.195 820.182 343.456 L 820.182 343.456 L 820.182 343.456 Z  M 813.783 350.435 L 813.748 351.279 L 813.713 352.14 L 813.713 352.948 L 813.713 352.948 Q 813.713 355.866 813.889 357.589 L 813.889 357.589 L 815.031 357.501 L 815.031 357.501 Q 817.51 357.325 819.197 356.974 L 819.197 356.974 L 819.197 356.974 Q 820.885 356.622 822.142 355.55 L 822.142 355.55 L 822.142 355.55 Q 823.398 354.478 823.398 352.386 L 823.398 352.386 L 823.398 352.386 Q 823.398 351.384 822.581 350.637 L 822.581 350.637 L 822.581 350.637 Q 821.764 349.89 820.542 349.494 L 820.542 349.494 L 820.542 349.494 Q 819.32 349.099 818.143 349.099 L 818.143 349.099 L 818.143 349.099 Q 817.791 349.099 817.413 349.222 L 817.413 349.222 L 817.413 349.222 Q 817.035 349.345 816.402 349.626 L 816.402 349.626 L 816.402 349.626 Q 815.664 349.943 815.066 350.145 L 815.066 350.145 L 815.066 350.145 Q 814.469 350.347 813.783 350.435 L 813.783 350.435 L 813.783 350.435 Z  M 836.793 359.593 L 836.793 359.593 Q 836.775 360.279 836.688 360.604 L 836.688 360.604 L 836.688 360.604 Q 836.6 360.929 836.345 361.078 L 836.345 361.078 L 836.345 361.078 Q 836.09 361.228 835.527 361.228 L 835.527 361.228 L 835.527 361.228 Q 834.842 361.228 834.499 360.929 L 834.499 360.929 L 834.499 360.929 Q 834.156 360.63 834.042 360.094 L 834.042 360.094 L 834.042 360.094 Q 833.928 359.558 833.928 358.661 L 833.928 358.661 L 833.945 358.134 L 833.945 358.134 Q 833.963 357.958 833.963 357.624 L 833.963 357.624 L 833.488 343.474 L 833.488 343.474 Q 833.084 343.509 832.451 343.614 L 832.451 343.614 L 832.451 343.614 Q 830.57 343.878 829.674 343.878 L 829.674 343.878 L 829.674 343.878 Q 828.848 343.878 828.443 343.544 L 828.443 343.544 L 828.443 343.544 Q 828.039 343.21 828.039 342.489 L 828.039 342.489 L 828.039 342.489 Q 828.039 341.136 828.637 340.6 L 828.637 340.6 L 828.637 340.6 Q 829.234 340.064 830.148 340.064 L 830.148 340.064 L 837.549 339.993 L 840.344 339.818 L 840.344 339.818 Q 840.994 339.818 841.39 340.345 L 841.39 340.345 L 841.39 340.345 Q 841.785 340.872 841.785 341.646 L 841.785 341.646 L 841.785 341.646 Q 841.785 342.015 841.565 342.542 L 841.565 342.542 L 841.565 342.542 Q 841.346 343.07 841.003 343.456 L 841.003 343.456 L 841.003 343.456 Q 840.66 343.843 840.309 343.843 L 840.309 343.843 L 840.309 343.843 Q 840.045 343.843 839.5 343.474 L 839.5 343.474 L 839.5 343.474 Q 839.236 343.28 839.034 343.184 L 839.034 343.184 L 839.034 343.184 Q 838.832 343.087 838.639 343.087 L 838.639 343.087 L 838.639 343.087 Q 836.828 343.087 835.967 343.21 L 835.967 343.21 L 836.477 357.536 L 836.477 357.536 Q 836.723 358.978 836.793 359.593 L 836.793 359.593 L 836.793 359.593 Z  M 852.367 348.818 L 852.367 348.818 Q 852.912 348.818 853.246 349.319 L 853.246 349.319 L 853.246 349.319 Q 853.58 349.82 853.58 350.646 L 853.58 350.646 L 853.58 350.646 Q 853.58 351.226 853.281 351.586 L 853.281 351.586 L 853.281 351.586 Q 852.982 351.946 852.604 352.096 L 852.604 352.096 L 852.604 352.096 Q 852.227 352.245 851.963 352.245 L 851.963 352.245 L 851.963 352.245 Q 851.295 352.245 850.275 352.087 L 850.275 352.087 L 850.275 352.087 Q 850.135 352.07 849.555 351.999 L 849.555 351.999 L 849.555 351.999 Q 848.975 351.929 848.43 351.929 L 848.43 351.929 L 848.43 351.929 Q 847.902 351.929 847.094 352.052 L 847.094 352.052 L 847.094 352.052 Q 846.109 352.193 845.494 352.193 L 845.494 352.193 L 845.494 352.193 Q 844.879 352.193 844.483 351.823 L 844.483 351.823 L 844.483 351.823 Q 844.088 351.454 844.088 350.382 L 844.088 350.382 L 844.088 350.382 Q 844.088 349.661 844.431 349.239 L 844.431 349.239 L 844.431 349.239 Q 844.773 348.818 845.318 348.818 L 845.318 348.818 L 845.318 348.818 Q 845.424 348.818 845.67 348.888 L 845.67 348.888 L 845.67 348.888 Q 845.916 348.958 846.127 348.958 L 846.127 348.958 L 846.127 348.958 Q 847.164 348.958 849.203 348.888 L 849.203 348.888 L 849.203 348.888 Q 851.313 348.818 852.367 348.818 L 852.367 348.818 L 852.367 348.818 Z  M 870.314 340.345 L 870.314 340.345 Q 871.211 340.345 871.606 340.424 L 871.606 340.424 L 871.606 340.424 Q 872.002 340.503 872.187 340.837 L 872.187 340.837 L 872.187 340.837 Q 872.371 341.171 872.371 341.909 L 872.371 341.909 L 872.371 341.909 Q 872.371 342.56 872.011 343.193 L 872.011 343.193 L 872.011 343.193 Q 871.65 343.825 871.176 343.825 L 871.176 343.825 L 871.176 343.825 Q 863.178 343.79 860.594 343.702 L 860.594 343.702 L 860.594 343.702 Q 860.594 344.265 860.559 345.847 L 860.559 345.847 L 860.559 345.847 Q 860.523 347.499 860.523 348.15 L 860.523 348.15 L 867.115 348.079 L 867.115 348.079 Q 867.713 348.079 868.073 348.51 L 868.073 348.51 L 868.073 348.51 Q 868.434 348.941 868.434 349.855 L 868.434 349.855 L 868.434 349.855 Q 868.434 350.101 868.302 350.523 L 868.302 350.523 L 868.302 350.523 Q 868.17 350.945 867.915 351.261 L 867.915 351.261 L 867.915 351.261 Q 867.66 351.577 867.291 351.577 L 867.291 351.577 L 867.291 351.577 Q 863.986 351.577 862.088 351.542 L 862.088 351.542 L 862.088 351.542 Q 861.684 351.525 861.174 351.525 L 861.174 351.525 L 861.174 351.525 Q 860.699 351.525 860.576 351.577 L 860.576 351.577 L 860.699 357.238 L 860.699 357.238 Q 861.859 357.238 863.301 357.29 L 863.301 357.29 L 863.301 357.29 Q 864.742 357.343 865.234 357.361 L 865.234 357.361 L 865.234 357.361 Q 868.469 357.501 870.262 357.501 L 870.262 357.501 L 870.262 357.501 Q 871.422 357.501 871.422 359.54 L 871.422 359.54 L 871.422 359.54 Q 871.422 360.542 870.903 360.982 L 870.903 360.982 L 870.903 360.982 Q 870.385 361.421 869.576 361.421 L 869.576 361.421 L 869.576 361.421 Q 868.838 361.421 867.432 361.28 L 867.432 361.28 L 867.432 361.28 Q 866.43 361.175 865.507 361.113 L 865.507 361.113 L 865.507 361.113 Q 864.584 361.052 863.125 361.052 L 863.125 361.052 L 863.125 361.052 Q 862.457 361.052 861.543 361.14 L 861.543 361.14 L 861.543 361.14 Q 860.102 361.228 859.715 361.228 L 859.715 361.228 L 859.715 361.228 Q 859.029 361.228 858.607 360.604 L 858.607 360.604 L 858.607 360.604 Q 858.186 359.98 858.203 358.978 L 858.203 358.978 L 858.309 351.173 L 858.309 351.173 Q 858.309 350.927 858.221 350.611 L 858.221 350.611 L 858.221 350.611 Q 858.203 350.54 858.168 350.321 L 858.168 350.321 L 858.168 350.321 Q 858.133 350.101 858.133 349.89 L 858.133 349.89 L 858.133 349.89 Q 858.133 349.45 858.344 348.905 L 858.344 348.905 L 858.344 348.905 Q 858.256 346.216 858.256 343.228 L 858.256 343.228 L 858.256 343.228 Q 858.256 342.314 858.326 341.69 L 858.326 341.69 L 858.326 341.69 Q 858.396 341.066 858.704 340.6 L 858.704 340.6 L 858.704 340.6 Q 859.012 340.134 859.662 340.134 L 859.662 340.134 L 859.662 340.134 Q 859.961 340.134 860.286 340.187 L 860.286 340.187 L 860.286 340.187 Q 860.611 340.239 860.717 340.257 L 860.717 340.257 L 860.717 340.257 Q 861.455 340.398 861.895 340.398 L 861.895 340.398 L 866.096 340.38 L 866.096 340.38 Q 869.189 340.345 870.314 340.345 L 870.314 340.345 L 870.314 340.345 Z  M 879.824 350.646 L 879.824 350.646 Q 881.775 347.394 883.059 345.654 L 883.059 345.654 L 883.059 345.654 Q 884.342 343.913 885.221 343.913 L 885.221 343.913 L 885.221 343.913 Q 885.801 343.913 886.082 344.326 L 886.082 344.326 L 886.082 344.326 Q 886.363 344.739 886.363 345.39 L 886.363 345.39 L 886.363 345.39 Q 886.363 345.706 886.188 346.014 L 886.188 346.014 L 886.188 346.014 Q 886.012 346.321 885.572 346.884 L 885.572 346.884 L 885.572 346.884 Q 883.182 349.222 881.037 352.825 L 881.037 352.825 L 881.037 352.825 Q 881.371 353.634 882.109 354.838 L 882.109 354.838 L 882.109 354.838 Q 882.848 356.042 883.718 356.956 L 883.718 356.956 L 883.718 356.956 Q 884.588 357.87 885.326 357.87 L 885.326 357.87 L 885.326 357.87 Q 885.854 357.87 886.126 358.231 L 886.126 358.231 L 886.126 358.231 Q 886.398 358.591 886.398 359.241 L 886.398 359.241 L 886.398 359.241 Q 886.398 360.419 886.003 360.938 L 886.003 360.938 L 886.003 360.938 Q 885.607 361.456 885.045 361.456 L 885.045 361.456 L 885.045 361.456 Q 882.742 361.456 879.279 355.726 L 879.279 355.726 L 879.279 355.726 Q 879.244 355.831 879.13 356.007 L 879.13 356.007 L 879.13 356.007 Q 879.016 356.183 878.805 356.482 L 878.805 356.482 L 878.805 356.482 Q 878.4 357.027 877.082 358.907 L 877.082 358.907 L 877.082 358.907 Q 876.994 359.716 876.625 360.525 L 876.625 360.525 L 876.625 360.525 Q 876.256 361.333 875.711 361.333 L 875.711 361.333 L 875.711 361.333 Q 874.973 361.333 874.542 360.946 L 874.542 360.946 L 874.542 360.946 Q 874.111 360.56 874.111 359.54 L 874.111 359.54 L 874.111 359.54 Q 874.111 358.855 874.322 358.433 L 874.322 358.433 L 874.322 358.433 Q 874.533 358.011 874.955 357.448 L 874.955 357.448 L 874.955 357.448 Q 875.307 356.939 876.344 355.515 L 876.344 355.515 L 876.344 355.515 Q 877.785 353.476 878.172 352.913 L 878.172 352.913 L 878.172 352.913 Q 877.697 352.157 876.924 350.505 L 876.924 350.505 L 876.924 350.505 Q 876.59 349.82 876.212 349.072 L 876.212 349.072 L 876.212 349.072 Q 875.834 348.325 875.447 347.71 L 875.447 347.71 L 875.447 347.71 Q 875.148 347.359 874.999 346.708 L 874.999 346.708 L 874.999 346.708 Q 874.85 346.058 874.85 345.478 L 874.85 345.478 L 874.85 345.478 Q 874.85 344.88 875.166 344.441 L 875.166 344.441 L 875.166 344.441 Q 875.482 344.001 876.027 344.001 L 876.027 344.001 L 876.027 344.001 Q 876.449 344.001 877.135 345.17 L 877.135 345.17 L 877.135 345.17 Q 877.82 346.339 878.682 348.202 L 878.682 348.202 L 879.824 350.646 L 879.824 350.646 Z  M 904.416 357.185 L 904.416 357.185 Q 904.961 357.185 905.198 357.536 L 905.198 357.536 L 905.198 357.536 Q 905.436 357.888 905.436 358.661 L 905.436 358.661 L 905.436 358.661 Q 905.436 359.259 905.102 359.857 L 905.102 359.857 L 905.102 359.857 Q 904.768 360.454 904.188 360.841 L 904.188 360.841 L 904.188 360.841 Q 903.607 361.228 902.904 361.228 L 902.904 361.228 L 902.904 361.228 Q 902.219 361.228 901.524 360.727 L 901.524 360.727 L 901.524 360.727 Q 900.83 360.226 900.391 359.408 L 900.391 359.408 L 900.391 359.408 Q 899.951 358.591 899.951 357.73 L 899.951 357.73 L 899.951 357.73 Q 898.633 359.4 897.218 360.41 L 897.218 360.41 L 897.218 360.41 Q 895.803 361.421 894.203 361.421 L 894.203 361.421 L 894.203 361.421 Q 892.744 361.421 891.241 360.472 L 891.241 360.472 L 891.241 360.472 Q 889.738 359.523 888.771 357.914 L 888.771 357.914 L 888.771 357.914 Q 887.805 356.306 887.805 354.443 L 887.805 354.443 L 887.805 354.443 Q 887.805 351.929 888.947 349.521 L 888.947 349.521 L 888.947 349.521 Q 890.09 347.113 892.015 345.601 L 892.015 345.601 L 892.015 345.601 Q 893.939 344.089 896.172 344.089 L 896.172 344.089 L 896.172 344.089 Q 897.859 344.089 899.31 345.109 L 899.31 345.109 L 899.31 345.109 Q 900.76 346.128 901.612 347.737 L 901.612 347.737 L 901.612 347.737 Q 902.465 349.345 902.465 350.997 L 902.465 350.997 L 902.465 350.997 Q 902.465 351.7 902.359 352.404 L 902.359 352.404 L 902.359 352.404 Q 902.254 353.107 902.236 353.282 L 902.236 353.282 L 902.236 353.282 Q 902.096 354.109 902.025 354.741 L 902.025 354.741 L 902.025 354.741 Q 901.955 355.374 901.955 356.113 L 901.955 356.113 L 901.955 356.113 Q 901.955 357.15 902.263 357.598 L 902.263 357.598 L 902.263 357.598 Q 902.57 358.046 903.186 358.046 L 903.186 358.046 L 903.186 358.046 Q 903.344 358.046 903.511 357.923 L 903.511 357.923 L 903.511 357.923 Q 903.678 357.8 903.906 357.571 L 903.906 357.571 L 903.906 357.571 Q 903.941 357.536 904.108 357.387 L 904.108 357.387 L 904.108 357.387 Q 904.275 357.238 904.416 357.185 L 904.416 357.185 L 904.416 357.185 Z  M 894.766 358.046 L 894.766 358.046 Q 896.822 358.046 897.947 356.904 L 897.947 356.904 L 897.947 356.904 Q 899.072 355.761 899.485 354.293 L 899.485 354.293 L 899.485 354.293 Q 899.898 352.825 900.25 350.47 L 900.25 350.47 L 900.25 350.47 Q 900.25 349.925 899.6 349.222 L 899.6 349.222 L 899.6 349.222 Q 898.949 348.519 898.044 348.009 L 898.044 348.009 L 898.044 348.009 Q 897.139 347.499 896.418 347.499 L 896.418 347.499 L 896.418 347.499 Q 894.607 347.499 893.184 348.51 L 893.184 348.51 L 893.184 348.51 Q 891.76 349.521 890.978 351.103 L 890.978 351.103 L 890.978 351.103 Q 890.195 352.685 890.195 354.32 L 890.195 354.32 L 890.195 354.32 Q 890.195 355.392 890.863 356.244 L 890.863 356.244 L 890.863 356.244 Q 891.531 357.097 892.595 357.571 L 892.595 357.571 L 892.595 357.571 Q 893.658 358.046 894.766 358.046 L 894.766 358.046 L 894.766 358.046 Z  M 926.705 355.093 L 926.723 352.368 L 926.723 352.368 Q 926.723 351.384 926.23 350.391 L 926.23 350.391 L 926.23 350.391 Q 925.738 349.398 924.807 348.756 L 924.807 348.756 L 924.807 348.756 Q 923.875 348.114 922.627 348.114 L 922.627 348.114 L 922.627 348.114 Q 921.977 348.114 921.15 348.457 L 921.15 348.457 L 921.15 348.457 Q 920.324 348.8 919.621 349.415 L 919.621 349.415 L 919.621 349.415 Q 918.918 350.03 918.619 350.786 L 918.619 350.786 L 918.443 357.941 L 918.514 358.468 L 918.584 359.013 L 918.584 359.013 Q 918.584 359.892 918.25 360.525 L 918.25 360.525 L 918.25 360.525 Q 917.916 361.157 917.424 361.157 L 917.424 361.157 L 917.424 361.157 Q 916.65 361.157 916.167 360.753 L 916.167 360.753 L 916.167 360.753 Q 915.684 360.349 915.684 359.241 L 915.684 359.241 L 915.736 358.872 L 915.736 358.872 Q 915.877 357.659 915.877 357.448 L 915.877 357.448 L 915.947 352.193 L 915.947 352.193 Q 915.965 351.155 915.561 350.11 L 915.561 350.11 L 915.561 350.11 Q 915.156 349.064 914.409 348.387 L 914.409 348.387 L 914.409 348.387 Q 913.662 347.71 912.713 347.71 L 912.713 347.71 L 912.713 347.71 Q 911.412 347.71 910.674 348.044 L 910.674 348.044 L 910.674 348.044 Q 909.936 348.378 909.628 349.099 L 909.628 349.099 L 909.628 349.099 Q 909.32 349.82 909.32 351.05 L 909.32 351.05 L 909.32 351.736 L 909.32 351.736 Q 909.32 352.702 909.426 354.566 L 909.426 354.566 L 909.426 354.566 Q 909.426 354.882 909.461 355.409 L 909.461 355.409 L 909.777 359.452 L 909.777 359.452 Q 909.777 359.962 909.531 360.366 L 909.531 360.366 L 909.531 360.366 Q 909.285 360.771 908.96 360.999 L 908.96 360.999 L 908.96 360.999 Q 908.635 361.228 908.441 361.228 L 908.441 361.228 L 908.441 361.228 Q 907.668 361.228 907.299 360.718 L 907.299 360.718 L 907.299 360.718 Q 906.93 360.208 906.93 358.837 L 906.93 358.837 L 906.93 358.661 L 906.947 358.239 L 906.947 358.239 Q 906.965 358.116 906.965 357.835 L 906.965 357.835 L 906.947 355.005 L 906.947 355.005 Q 906.93 354.372 906.93 353.353 L 906.93 353.353 L 906.93 350.54 L 906.93 350.54 Q 906.93 348.431 907.009 347.236 L 907.009 347.236 L 907.009 347.236 Q 907.088 346.04 907.352 345.39 L 907.352 345.39 L 907.352 345.39 Q 907.615 344.739 908.143 344.739 L 908.143 344.739 L 908.143 344.739 Q 909.18 344.739 909.18 346.603 L 909.18 346.603 L 909.18 346.919 L 909.18 346.919 Q 909.426 346.251 909.988 345.662 L 909.988 345.662 L 909.988 345.662 Q 910.551 345.073 911.28 344.704 L 911.28 344.704 L 911.28 344.704 Q 912.01 344.335 912.748 344.335 L 912.748 344.335 L 912.748 344.335 Q 913.68 344.335 914.84 344.81 L 914.84 344.81 L 914.84 344.81 Q 916 345.284 916.844 346.295 L 916.844 346.295 L 916.844 346.295 Q 917.688 347.306 917.688 348.818 L 917.688 348.818 L 917.688 348.818 Q 917.934 347.622 918.786 346.717 L 918.786 346.717 L 918.786 346.717 Q 919.639 345.812 920.746 345.328 L 920.746 345.328 L 920.746 345.328 Q 921.854 344.845 922.768 344.845 L 922.768 344.845 L 922.768 344.845 Q 925.844 344.845 927.54 347.051 L 927.54 347.051 L 927.54 347.051 Q 929.236 349.257 929.236 353.88 L 929.236 353.88 L 929.236 353.88 Q 929.236 357.027 928.832 359.224 L 928.832 359.224 L 928.832 359.224 Q 928.428 361.421 927.602 361.421 L 927.602 361.421 L 927.602 361.421 Q 927.162 361.421 926.784 361.078 L 926.784 361.078 L 926.784 361.078 Q 926.406 360.736 926.178 360.226 L 926.178 360.226 L 926.178 360.226 Q 925.949 359.716 925.949 359.277 L 925.949 359.277 L 925.949 359.277 Q 925.949 358.679 926.046 358.231 L 926.046 358.231 L 926.046 358.231 Q 926.143 357.782 926.318 357.238 L 926.318 357.238 L 926.318 357.238 Q 926.512 356.657 926.608 356.2 L 926.608 356.2 L 926.608 356.2 Q 926.705 355.743 926.705 355.093 L 926.705 355.093 L 926.705 355.093 Z " fill="rgb(255,255,255)"/></g></svg>