<?xml version="1.0" encoding="UTF-8" standalone="no"?><!-- Generator: Gravit.io --><svg xmlns="http://www.w3.org/2000/svg" xmlns:xlink="http://www.w3.org/1999/xlink" style="isolation:isolate" viewBox="654 676 45.325 48" width="45.325pt" height="48pt"><defs><clipPath id="_clipPath_HZIIHbtL95tiUXlNkPQq7d7RB6kx3lVq"><rect x="654" y="676" width="45.325" height="48"/></clipPath></defs><g clip-path="url(#_clipPath_HZIIHbtL95tiUXlNkPQq7d7RB6kx3lVq)"><g><g><g><path d=" M 689.6 721.9 C 689.6 723 688.7 724 687.5 724 L 656.1 724 C 655 724 654 723.1 654 721.9 L 654 682.7 C 654 681.6 654.9 680.6 656.1 680.6 L 663.3 680.6 L 663.3 684.5 L 680.3 684.5 L 680.3 680.6 L 687.5 680.6 C 688.6 680.6 689.6 681.5 689.6 682.7 L 689.6 721.9 Z " fill="rgb(250,204,32)"/></g><path d=" M 677.7 684.5 C 673.5 694.9 664.8 703 654 706.3 L 654 682.7 C 654 681.6 654.9 680.6 656.1 680.6 L 663.3 680.6 L 663.3 684.5 L 677.7 684.5 Z " fill="none"/><g><rect x="657.9" y="684.5" width="27.9" height="35.6" transform="matrix(1,0,0,1,0,0)" fill="rgb(255,255,255)"/></g><g><rect x="657.9" y="720.1" width="27.9" height="0.6" transform="matrix(1,0,0,1,0,0)" fill="rgb(243,238,228)"/></g><g><rect x="657.9" y="720.7" width="27.9" height="0.6" transform="matrix(1,0,0,1,0,0)" fill="rgb(232,220,202)"/></g><path d=" M 671.8 676 C 670.5 676 669.5 677 669.5 678.3 C 669.5 679.6 670.5 680.6 671.8 680.6 C 673.1 680.6 674.1 679.6 674.1 678.3 C 674.1 677 673.1 676 671.8 676 Z  M 671.8 679.7 C 671 679.7 670.4 679.1 670.4 678.3 C 670.4 677.5 671 676.9 671.8 676.9 C 672.6 676.9 673.2 677.5 673.2 678.3 C 673.2 679.1 672.6 679.7 671.8 679.7 Z " fill="rgb(64,74,76)"/><g><path d=" M 674.1 678.3 C 674.1 679.6 673.1 680.6 671.8 680.6 C 670.5 680.6 669.5 679.6 669.5 678.3 L 663.3 678.3 L 663.3 684.5 L 680.3 684.5 L 680.3 678.3 L 674.1 678.3 Z " fill="rgb(64,74,76)"/></g><g><path d=" M 674.4 719.5 L 680.8 717.1 L 676.7 713 L 674.4 719.5 Z " fill="rgb(232,220,202)"/><path d=" M 675.3 717 L 674.4 719.5 L 676.8 718.6 L 675.3 717 Z " fill="rgb(105,86,82)"/><path d=" M 677 712.7 C 676.3 713.4 676.3 714.4 676.8 714.9 C 677.4 715.5 678.4 715.4 679 714.7 L 695.2 698.5 L 693.2 696.5 L 677 712.7 Z " fill="rgb(98,190,231)"/><path d=" M 679.1 714.8 C 678.4 715.5 678.4 716.5 678.9 717 C 679.5 717.6 680.5 717.5 681.1 716.8 L 697.3 700.6 L 695.3 698.6 L 679.1 714.8 Z " fill="rgb(48,167,191)"/><rect x="694.921" y="695.396" width="1" height="5.798" transform="matrix(0.707,-0.707,0.707,0.707,-290.085,696.263)" fill="rgb(105,86,82)"/><path d=" M 695 694.8 L 694 695.8 L 698.1 699.9 L 699.1 698.9 C 699.4 698.6 699.4 698 699.1 697.7 L 696.2 694.8 C 695.9 694.4 695.3 694.4 695 694.8 Z " fill="rgb(247,169,11)"/></g><g><g><rect x="661.4" y="689.2" width="1.5" height="2.3" transform="matrix(1,0,0,1,0,0)" fill="rgb(224,225,229)"/><rect x="665" y="689.2" width="17.3" height="2.3" transform="matrix(1,0,0,1,0,0)" fill="rgb(224,225,229)"/></g><g><rect x="661.4" y="694.1" width="1.5" height="2.3" transform="matrix(1,0,0,1,0,0)" fill="rgb(224,225,229)"/><rect x="665" y="694.1" width="17.3" height="2.3" transform="matrix(1,0,0,1,0,0)" fill="rgb(224,225,229)"/></g><g><rect x="661.4" y="698.9" width="1.5" height="2.3" transform="matrix(1,0,0,1,0,0)" fill="rgb(224,225,229)"/><rect x="665" y="698.9" width="17.3" height="2.3" transform="matrix(1,0,0,1,0,0)" fill="rgb(224,225,229)"/></g><g><rect x="661.4" y="703.7" width="1.5" height="2.3" transform="matrix(1,0,0,1,0,0)" fill="rgb(224,225,229)"/><rect x="665" y="703.7" width="17.3" height="2.3" transform="matrix(1,0,0,1,0,0)" fill="rgb(224,225,229)"/></g></g><path d=" M 674.1 678.3 C 674.1 679.2 673.6 680 672.8 680.4 C 672.8 680.4 672.8 680.4 672.8 680.4 L 677.8 680.4 C 678.4 680.4 679 680.9 679 681.4 C 679 682 678.5 682.4 677.8 682.4 L 672.8 682.4 C 672.2 682.4 671.6 682.9 671.6 683.4 C 671.6 684 672.1 684.4 672.8 684.4 L 680.3 684.4 L 680.3 678.2 L 674.1 678.2 L 674.1 678.3 Z " fill="rgb(77,85,86)"/></g></g></g></svg>