<?xml version="1.0" encoding="UTF-8" standalone="no"?><!-- Generator: Gravit.io --><svg xmlns="http://www.w3.org/2000/svg" xmlns:xlink="http://www.w3.org/1999/xlink" style="isolation:isolate" viewBox="386 205.667 195.236 48" width="195.236pt" height="48pt"><defs><clipPath id="_clipPath_txDRcwwXacJr8AWiJao8joWLEoWs6a3U"><rect x="386" y="205.667" width="195.236" height="48"/></clipPath></defs><g clip-path="url(#_clipPath_txDRcwwXacJr8AWiJao8joWLEoWs6a3U)"><clipPath id="_clipPath_XlzIBtEnDsuKpvTs3GIqGUy1Sk22nwVN"><rect x="386" y="205.667" width="195.236" height="48" transform="matrix(1,0,0,1,0,0)" fill="rgb(255,255,255)"/></clipPath><g clip-path="url(#_clipPath_XlzIBtEnDsuKpvTs3GIqGUy1Sk22nwVN)"><g><g><path d=" M 421.6 251.567 C 421.6 252.667 420.7 253.667 419.5 253.667 L 388.1 253.667 C 387 253.667 386 252.767 386 251.567 L 386 212.367 C 386 211.267 386.9 210.267 388.1 210.267 L 395.3 210.267 L 395.3 214.167 L 412.3 214.167 L 412.3 210.267 L 419.5 210.267 C 420.6 210.267 421.6 211.167 421.6 212.367 L 421.6 251.567 Z " fill="rgb(250,204,32)"/></g><path d=" M 409.7 214.167 C 405.5 224.567 396.8 232.667 386 235.967 L 386 212.367 C 386 211.267 386.9 210.267 388.1 210.267 L 395.3 210.267 L 395.3 214.167 L 409.7 214.167 Z " fill="none"/><g><rect x="389.9" y="214.167" width="27.9" height="35.6" transform="matrix(1,0,0,1,0,0)" fill="rgb(255,255,255)"/></g><g><rect x="389.9" y="249.767" width="27.9" height="0.6" transform="matrix(1,0,0,1,0,0)" fill="rgb(243,238,228)"/></g><g><rect x="389.9" y="250.367" width="27.9" height="0.6" transform="matrix(1,0,0,1,0,0)" fill="rgb(232,220,202)"/></g><path d=" M 403.8 205.667 C 402.5 205.667 401.5 206.667 401.5 207.967 C 401.5 209.267 402.5 210.267 403.8 210.267 C 405.1 210.267 406.1 209.267 406.1 207.967 C 406.1 206.667 405.1 205.667 403.8 205.667 Z  M 403.8 209.367 C 403 209.367 402.4 208.767 402.4 207.967 C 402.4 207.167 403 206.567 403.8 206.567 C 404.6 206.567 405.2 207.167 405.2 207.967 C 405.2 208.767 404.6 209.367 403.8 209.367 Z " fill="rgb(64,74,76)"/><g><path d=" M 406.1 207.967 C 406.1 209.267 405.1 210.267 403.8 210.267 C 402.5 210.267 401.5 209.267 401.5 207.967 L 395.3 207.967 L 395.3 214.167 L 412.3 214.167 L 412.3 207.967 L 406.1 207.967 Z " fill="rgb(64,74,76)"/></g><g><path d=" M 406.4 249.167 L 412.8 246.767 L 408.7 242.667 L 406.4 249.167 Z " fill="rgb(232,220,202)"/><path d=" M 407.3 246.667 L 406.4 249.167 L 408.8 248.267 L 407.3 246.667 Z " fill="rgb(105,86,82)"/><path d=" M 409 242.367 C 408.3 243.067 408.3 244.067 408.8 244.567 C 409.4 245.167 410.4 245.067 411 244.367 L 427.2 228.167 L 425.2 226.167 L 409 242.367 Z " fill="rgb(98,190,231)"/><path d=" M 411.1 244.467 C 410.4 245.167 410.4 246.167 410.9 246.667 C 411.5 247.267 412.5 247.167 413.1 246.467 L 429.3 230.267 L 427.3 228.267 L 411.1 244.467 Z " fill="rgb(48,167,191)"/><rect x="426.991" y="225.041" width="1" height="5.799" transform="matrix(0.707,-0.707,0.707,0.707,-35.969,369.044)" fill="rgb(105,86,82)"/><path d=" M 427 224.467 L 426 225.467 L 430.1 229.567 L 431.1 228.567 C 431.4 228.267 431.4 227.667 431.1 227.367 L 428.2 224.467 C 427.9 224.067 427.3 224.067 427 224.467 Z " fill="rgb(247,169,11)"/></g><g><g><rect x="393.4" y="218.867" width="1.5" height="2.3" transform="matrix(1,0,0,1,0,0)" fill="rgb(224,225,229)"/><rect x="397" y="218.867" width="17.3" height="2.3" transform="matrix(1,0,0,1,0,0)" fill="rgb(224,225,229)"/></g><g><rect x="393.4" y="223.767" width="1.5" height="2.3" transform="matrix(1,0,0,1,0,0)" fill="rgb(224,225,229)"/><rect x="397" y="223.767" width="17.3" height="2.3" transform="matrix(1,0,0,1,0,0)" fill="rgb(224,225,229)"/></g><g><rect x="393.4" y="228.567" width="1.5" height="2.3" transform="matrix(1,0,0,1,0,0)" fill="rgb(224,225,229)"/><rect x="397" y="228.567" width="17.3" height="2.3" transform="matrix(1,0,0,1,0,0)" fill="rgb(224,225,229)"/></g><g><rect x="393.4" y="233.367" width="1.5" height="2.3" transform="matrix(1,0,0,1,0,0)" fill="rgb(224,225,229)"/><rect x="397" y="233.367" width="17.3" height="2.3" transform="matrix(1,0,0,1,0,0)" fill="rgb(224,225,229)"/></g></g><path d=" M 406.1 207.967 C 406.1 208.867 405.6 209.667 404.8 210.067 C 404.8 210.067 404.8 210.067 404.8 210.067 L 409.8 210.067 C 410.4 210.067 411 210.567 411 211.067 C 411 211.667 410.5 212.067 409.8 212.067 L 404.8 212.067 C 404.2 212.067 403.6 212.567 403.6 213.067 C 403.6 213.667 404.1 214.067 404.8 214.067 L 412.3 214.067 L 412.3 207.867 L 406.1 207.867 L 406.1 207.967 Z " fill="rgb(77,85,86)"/><path d=" M 445.322 225.637 L 445.322 225.637 Q 445.832 224.213 446.922 222.701 L 446.922 222.701 L 446.922 222.701 Q 448.012 221.19 449.471 220.161 L 449.471 220.161 L 449.471 220.161 Q 450.93 219.133 452.459 219.133 L 452.459 219.133 L 452.459 219.133 Q 453.953 219.133 455.307 219.827 L 455.307 219.827 L 455.307 219.827 Q 456.66 220.522 457.504 221.884 L 457.504 221.884 L 457.504 221.884 Q 458.348 223.246 458.348 225.127 L 458.348 225.127 L 458.348 225.127 Q 458.348 225.619 458.181 226.217 L 458.181 226.217 L 458.181 226.217 Q 458.014 226.815 457.662 227.245 L 457.662 227.245 L 457.662 227.245 Q 457.311 227.676 456.818 227.676 L 456.818 227.676 L 456.818 227.676 Q 456.414 227.676 456.221 227.447 L 456.221 227.447 L 456.221 227.447 Q 456.027 227.219 455.966 226.867 L 455.966 226.867 L 455.966 226.867 Q 455.904 226.516 455.852 225.883 L 455.852 225.883 L 455.852 225.883 Q 455.781 224.828 455.579 224.134 L 455.579 224.134 L 455.579 224.134 Q 455.377 223.44 454.656 222.939 L 454.656 222.939 L 454.656 222.939 Q 453.936 222.438 452.477 222.438 L 452.477 222.438 L 452.477 222.438 Q 450.49 222.438 449.075 224.283 L 449.075 224.283 L 449.075 224.283 Q 447.66 226.129 446.939 228.564 L 446.939 228.564 L 446.939 228.564 Q 446.219 230.998 446.219 232.58 L 446.219 232.58 L 446.219 232.58 Q 446.219 234.127 447.045 235.27 L 447.045 235.27 L 447.045 235.27 Q 447.871 236.412 449.181 237.01 L 449.181 237.01 L 449.181 237.01 Q 450.49 237.608 451.896 237.608 L 451.896 237.608 L 451.896 237.608 Q 453.162 237.608 454.691 237.405 L 454.691 237.405 L 454.691 237.405 Q 456.221 237.203 457.17 236.781 L 457.17 236.781 L 457.17 236.781 Q 457.803 236.184 458.11 235.946 L 458.11 235.946 L 458.11 235.946 Q 458.418 235.709 458.559 235.709 L 458.559 235.709 L 458.559 235.709 Q 459.121 235.709 459.464 236.21 L 459.464 236.21 L 459.464 236.21 Q 459.807 236.711 459.807 237.467 L 459.807 237.467 L 459.807 237.467 Q 459.807 238.697 458.585 239.48 L 458.585 239.48 L 458.585 239.48 Q 457.363 240.262 455.614 240.596 L 455.614 240.596 L 455.614 240.596 Q 453.865 240.93 452.195 240.93 L 452.195 240.93 L 452.195 240.93 Q 448.609 240.93 446.228 239.102 L 446.228 239.102 L 446.228 239.102 Q 443.846 237.274 443.846 232.633 L 443.846 232.633 L 443.846 232.633 Q 443.846 230.981 444.232 229.328 L 444.232 229.328 L 444.232 229.328 Q 444.619 227.676 445.322 225.637 L 445.322 225.637 L 445.322 225.637 Z  M 466.574 240.684 L 466.574 240.684 Q 466.398 240.684 466.082 240.842 L 466.082 240.842 L 466.082 240.842 Q 465.941 240.912 465.774 240.974 L 465.774 240.974 L 465.774 240.974 Q 465.607 241.035 465.449 241.035 L 465.449 241.035 L 465.449 241.035 Q 465.08 241.035 464.605 240.824 L 464.605 240.824 L 464.605 240.824 Q 464.131 240.613 463.788 240.192 L 463.788 240.192 L 463.788 240.192 Q 463.445 239.77 463.445 239.19 L 463.445 239.19 L 463.445 239.19 Q 463.445 239.049 463.507 237.546 L 463.507 237.546 L 463.507 237.546 Q 463.568 236.043 463.674 226.586 L 463.674 226.586 L 463.674 226.586 Q 463.674 224.248 464.017 222.297 L 464.017 222.297 L 464.017 222.297 Q 464.359 220.346 465.203 220.047 L 465.203 220.047 L 465.203 220.047 Q 466.469 219.643 467.919 219.432 L 467.919 219.432 L 467.919 219.432 Q 469.369 219.221 470.582 219.221 L 470.582 219.221 L 470.582 219.221 Q 471.338 219.221 472.182 219.634 L 472.182 219.634 L 472.182 219.634 Q 473.025 220.047 473.605 220.812 L 473.605 220.812 L 473.605 220.812 Q 474.186 221.576 474.186 222.578 L 474.186 222.578 L 474.186 222.578 Q 474.186 224.477 473.061 226.112 L 473.061 226.112 L 473.061 226.112 Q 475.064 226.885 476.216 228.441 L 476.216 228.441 L 476.216 228.441 Q 477.367 229.996 477.367 232.317 L 477.367 232.317 L 477.367 232.317 Q 477.367 235.129 475.979 237.028 L 475.979 237.028 L 475.979 237.028 Q 474.59 238.926 472.287 239.849 L 472.287 239.849 L 472.287 239.849 Q 469.984 240.772 467.225 240.772 L 467.225 240.772 L 467.225 240.772 Q 467.137 240.772 466.935 240.728 L 466.935 240.728 L 466.935 240.728 Q 466.732 240.684 466.574 240.684 L 466.574 240.684 L 466.574 240.684 Z  M 472.182 223.123 L 472.182 223.123 Q 472.182 222.842 471.417 222.684 L 471.417 222.684 L 471.417 222.684 Q 470.652 222.526 469.563 222.526 L 469.563 222.526 L 469.563 222.526 Q 469.035 222.526 468.165 222.622 L 468.165 222.622 L 468.165 222.622 Q 467.295 222.719 466.601 222.947 L 466.601 222.947 L 466.601 222.947 Q 465.906 223.176 465.889 223.545 L 465.889 223.545 L 465.783 226.305 L 465.783 226.305 Q 466.188 226.305 466.917 226.129 L 466.917 226.129 L 466.917 226.129 Q 467.646 225.953 470.02 225.197 L 470.02 225.197 L 470.02 225.197 Q 472.182 223.862 472.182 223.123 L 472.182 223.123 L 472.182 223.123 Z  M 465.783 230.102 L 465.748 230.946 L 465.713 231.807 L 465.713 232.615 L 465.713 232.615 Q 465.713 235.533 465.889 237.256 L 465.889 237.256 L 467.031 237.168 L 467.031 237.168 Q 469.51 236.992 471.197 236.641 L 471.197 236.641 L 471.197 236.641 Q 472.885 236.289 474.142 235.217 L 474.142 235.217 L 474.142 235.217 Q 475.398 234.145 475.398 232.053 L 475.398 232.053 L 475.398 232.053 Q 475.398 231.051 474.581 230.304 L 474.581 230.304 L 474.581 230.304 Q 473.764 229.557 472.542 229.161 L 472.542 229.161 L 472.542 229.161 Q 471.32 228.766 470.143 228.766 L 470.143 228.766 L 470.143 228.766 Q 469.791 228.766 469.413 228.889 L 469.413 228.889 L 469.413 228.889 Q 469.035 229.012 468.402 229.293 L 468.402 229.293 L 468.402 229.293 Q 467.664 229.61 467.066 229.812 L 467.066 229.812 L 467.066 229.812 Q 466.469 230.014 465.783 230.102 L 465.783 230.102 L 465.783 230.102 Z  M 488.793 239.26 L 488.793 239.26 Q 488.775 239.946 488.688 240.271 L 488.688 240.271 L 488.688 240.271 Q 488.6 240.596 488.345 240.745 L 488.345 240.745 L 488.345 240.745 Q 488.09 240.895 487.527 240.895 L 487.527 240.895 L 487.527 240.895 Q 486.842 240.895 486.499 240.596 L 486.499 240.596 L 486.499 240.596 Q 486.156 240.297 486.042 239.761 L 486.042 239.761 L 486.042 239.761 Q 485.928 239.225 485.928 238.328 L 485.928 238.328 L 485.945 237.801 L 485.945 237.801 Q 485.963 237.625 485.963 237.291 L 485.963 237.291 L 485.488 223.141 L 485.488 223.141 Q 485.084 223.176 484.451 223.281 L 484.451 223.281 L 484.451 223.281 Q 482.57 223.545 481.674 223.545 L 481.674 223.545 L 481.674 223.545 Q 480.848 223.545 480.443 223.211 L 480.443 223.211 L 480.443 223.211 Q 480.039 222.877 480.039 222.156 L 480.039 222.156 L 480.039 222.156 Q 480.039 220.803 480.637 220.267 L 480.637 220.267 L 480.637 220.267 Q 481.234 219.731 482.148 219.731 L 482.148 219.731 L 489.549 219.66 L 492.344 219.485 L 492.344 219.485 Q 492.994 219.485 493.39 220.012 L 493.39 220.012 L 493.39 220.012 Q 493.785 220.539 493.785 221.313 L 493.785 221.313 L 493.785 221.313 Q 493.785 221.682 493.565 222.209 L 493.565 222.209 L 493.565 222.209 Q 493.346 222.737 493.003 223.123 L 493.003 223.123 L 493.003 223.123 Q 492.66 223.51 492.309 223.51 L 492.309 223.51 L 492.309 223.51 Q 492.045 223.51 491.5 223.141 L 491.5 223.141 L 491.5 223.141 Q 491.236 222.947 491.034 222.851 L 491.034 222.851 L 491.034 222.851 Q 490.832 222.754 490.639 222.754 L 490.639 222.754 L 490.639 222.754 Q 488.828 222.754 487.967 222.877 L 487.967 222.877 L 488.477 237.203 L 488.477 237.203 Q 488.723 238.645 488.793 239.26 L 488.793 239.26 L 488.793 239.26 Z  M 504.367 228.485 L 504.367 228.485 Q 504.912 228.485 505.246 228.986 L 505.246 228.986 L 505.246 228.986 Q 505.58 229.487 505.58 230.313 L 505.58 230.313 L 505.58 230.313 Q 505.58 230.893 505.281 231.253 L 505.281 231.253 L 505.281 231.253 Q 504.982 231.613 504.604 231.763 L 504.604 231.763 L 504.604 231.763 Q 504.227 231.912 503.963 231.912 L 503.963 231.912 L 503.963 231.912 Q 503.295 231.912 502.275 231.754 L 502.275 231.754 L 502.275 231.754 Q 502.135 231.737 501.555 231.666 L 501.555 231.666 L 501.555 231.666 Q 500.975 231.596 500.43 231.596 L 500.43 231.596 L 500.43 231.596 Q 499.902 231.596 499.094 231.719 L 499.094 231.719 L 499.094 231.719 Q 498.109 231.86 497.494 231.86 L 497.494 231.86 L 497.494 231.86 Q 496.879 231.86 496.483 231.49 L 496.483 231.49 L 496.483 231.49 Q 496.088 231.121 496.088 230.049 L 496.088 230.049 L 496.088 230.049 Q 496.088 229.328 496.431 228.906 L 496.431 228.906 L 496.431 228.906 Q 496.773 228.485 497.318 228.485 L 497.318 228.485 L 497.318 228.485 Q 497.424 228.485 497.67 228.555 L 497.67 228.555 L 497.67 228.555 Q 497.916 228.625 498.127 228.625 L 498.127 228.625 L 498.127 228.625 Q 499.164 228.625 501.203 228.555 L 501.203 228.555 L 501.203 228.555 Q 503.313 228.485 504.367 228.485 L 504.367 228.485 L 504.367 228.485 Z  M 522.314 220.012 L 522.314 220.012 Q 523.211 220.012 523.606 220.091 L 523.606 220.091 L 523.606 220.091 Q 524.002 220.17 524.187 220.504 L 524.187 220.504 L 524.187 220.504 Q 524.371 220.838 524.371 221.576 L 524.371 221.576 L 524.371 221.576 Q 524.371 222.227 524.011 222.86 L 524.011 222.86 L 524.011 222.86 Q 523.65 223.492 523.176 223.492 L 523.176 223.492 L 523.176 223.492 Q 515.178 223.457 512.594 223.369 L 512.594 223.369 L 512.594 223.369 Q 512.594 223.932 512.559 225.514 L 512.559 225.514 L 512.559 225.514 Q 512.523 227.166 512.523 227.817 L 512.523 227.817 L 519.115 227.746 L 519.115 227.746 Q 519.713 227.746 520.073 228.177 L 520.073 228.177 L 520.073 228.177 Q 520.434 228.608 520.434 229.522 L 520.434 229.522 L 520.434 229.522 Q 520.434 229.768 520.302 230.19 L 520.302 230.19 L 520.302 230.19 Q 520.17 230.612 519.915 230.928 L 519.915 230.928 L 519.915 230.928 Q 519.66 231.244 519.291 231.244 L 519.291 231.244 L 519.291 231.244 Q 515.986 231.244 514.088 231.209 L 514.088 231.209 L 514.088 231.209 Q 513.684 231.192 513.174 231.192 L 513.174 231.192 L 513.174 231.192 Q 512.699 231.192 512.576 231.244 L 512.576 231.244 L 512.699 236.905 L 512.699 236.905 Q 513.859 236.905 515.301 236.957 L 515.301 236.957 L 515.301 236.957 Q 516.742 237.01 517.234 237.028 L 517.234 237.028 L 517.234 237.028 Q 520.469 237.168 522.262 237.168 L 522.262 237.168 L 522.262 237.168 Q 523.422 237.168 523.422 239.207 L 523.422 239.207 L 523.422 239.207 Q 523.422 240.209 522.903 240.649 L 522.903 240.649 L 522.903 240.649 Q 522.385 241.088 521.576 241.088 L 521.576 241.088 L 521.576 241.088 Q 520.838 241.088 519.432 240.947 L 519.432 240.947 L 519.432 240.947 Q 518.43 240.842 517.507 240.78 L 517.507 240.78 L 517.507 240.78 Q 516.584 240.719 515.125 240.719 L 515.125 240.719 L 515.125 240.719 Q 514.457 240.719 513.543 240.807 L 513.543 240.807 L 513.543 240.807 Q 512.102 240.895 511.715 240.895 L 511.715 240.895 L 511.715 240.895 Q 511.029 240.895 510.607 240.271 L 510.607 240.271 L 510.607 240.271 Q 510.186 239.647 510.203 238.645 L 510.203 238.645 L 510.309 230.84 L 510.309 230.84 Q 510.309 230.594 510.221 230.278 L 510.221 230.278 L 510.221 230.278 Q 510.203 230.207 510.168 229.988 L 510.168 229.988 L 510.168 229.988 Q 510.133 229.768 510.133 229.557 L 510.133 229.557 L 510.133 229.557 Q 510.133 229.117 510.344 228.572 L 510.344 228.572 L 510.344 228.572 Q 510.256 225.883 510.256 222.895 L 510.256 222.895 L 510.256 222.895 Q 510.256 221.981 510.326 221.357 L 510.326 221.357 L 510.326 221.357 Q 510.396 220.733 510.704 220.267 L 510.704 220.267 L 510.704 220.267 Q 511.012 219.801 511.662 219.801 L 511.662 219.801 L 511.662 219.801 Q 511.961 219.801 512.286 219.854 L 512.286 219.854 L 512.286 219.854 Q 512.611 219.906 512.717 219.924 L 512.717 219.924 L 512.717 219.924 Q 513.455 220.065 513.895 220.065 L 513.895 220.065 L 518.096 220.047 L 518.096 220.047 Q 521.189 220.012 522.314 220.012 L 522.314 220.012 L 522.314 220.012 Z  M 531.824 230.313 L 531.824 230.313 Q 533.775 227.061 535.059 225.321 L 535.059 225.321 L 535.059 225.321 Q 536.342 223.58 537.221 223.58 L 537.221 223.58 L 537.221 223.58 Q 537.801 223.58 538.082 223.993 L 538.082 223.993 L 538.082 223.993 Q 538.363 224.406 538.363 225.057 L 538.363 225.057 L 538.363 225.057 Q 538.363 225.373 538.188 225.681 L 538.188 225.681 L 538.188 225.681 Q 538.012 225.988 537.572 226.551 L 537.572 226.551 L 537.572 226.551 Q 535.182 228.889 533.037 232.492 L 533.037 232.492 L 533.037 232.492 Q 533.371 233.301 534.109 234.505 L 534.109 234.505 L 534.109 234.505 Q 534.848 235.709 535.718 236.623 L 535.718 236.623 L 535.718 236.623 Q 536.588 237.537 537.326 237.537 L 537.326 237.537 L 537.326 237.537 Q 537.854 237.537 538.126 237.898 L 538.126 237.898 L 538.126 237.898 Q 538.398 238.258 538.398 238.908 L 538.398 238.908 L 538.398 238.908 Q 538.398 240.086 538.003 240.605 L 538.003 240.605 L 538.003 240.605 Q 537.607 241.123 537.045 241.123 L 537.045 241.123 L 537.045 241.123 Q 534.742 241.123 531.279 235.393 L 531.279 235.393 L 531.279 235.393 Q 531.244 235.498 531.13 235.674 L 531.13 235.674 L 531.13 235.674 Q 531.016 235.85 530.805 236.149 L 530.805 236.149 L 530.805 236.149 Q 530.4 236.694 529.082 238.574 L 529.082 238.574 L 529.082 238.574 Q 528.994 239.383 528.625 240.192 L 528.625 240.192 L 528.625 240.192 Q 528.256 241 527.711 241 L 527.711 241 L 527.711 241 Q 526.973 241 526.542 240.613 L 526.542 240.613 L 526.542 240.613 Q 526.111 240.227 526.111 239.207 L 526.111 239.207 L 526.111 239.207 Q 526.111 238.522 526.322 238.1 L 526.322 238.1 L 526.322 238.1 Q 526.533 237.678 526.955 237.115 L 526.955 237.115 L 526.955 237.115 Q 527.307 236.606 528.344 235.182 L 528.344 235.182 L 528.344 235.182 Q 529.785 233.143 530.172 232.58 L 530.172 232.58 L 530.172 232.58 Q 529.697 231.824 528.924 230.172 L 528.924 230.172 L 528.924 230.172 Q 528.59 229.487 528.212 228.739 L 528.212 228.739 L 528.212 228.739 Q 527.834 227.992 527.447 227.377 L 527.447 227.377 L 527.447 227.377 Q 527.148 227.026 526.999 226.375 L 526.999 226.375 L 526.999 226.375 Q 526.85 225.725 526.85 225.145 L 526.85 225.145 L 526.85 225.145 Q 526.85 224.547 527.166 224.108 L 527.166 224.108 L 527.166 224.108 Q 527.482 223.668 528.027 223.668 L 528.027 223.668 L 528.027 223.668 Q 528.449 223.668 529.135 224.837 L 529.135 224.837 L 529.135 224.837 Q 529.82 226.006 530.682 227.869 L 530.682 227.869 L 531.824 230.313 L 531.824 230.313 Z  M 556.416 236.852 L 556.416 236.852 Q 556.961 236.852 557.198 237.203 L 557.198 237.203 L 557.198 237.203 Q 557.436 237.555 557.436 238.328 L 557.436 238.328 L 557.436 238.328 Q 557.436 238.926 557.102 239.524 L 557.102 239.524 L 557.102 239.524 Q 556.768 240.121 556.188 240.508 L 556.188 240.508 L 556.188 240.508 Q 555.607 240.895 554.904 240.895 L 554.904 240.895 L 554.904 240.895 Q 554.219 240.895 553.524 240.394 L 553.524 240.394 L 553.524 240.394 Q 552.83 239.893 552.391 239.075 L 552.391 239.075 L 552.391 239.075 Q 551.951 238.258 551.951 237.397 L 551.951 237.397 L 551.951 237.397 Q 550.633 239.067 549.218 240.077 L 549.218 240.077 L 549.218 240.077 Q 547.803 241.088 546.203 241.088 L 546.203 241.088 L 546.203 241.088 Q 544.744 241.088 543.241 240.139 L 543.241 240.139 L 543.241 240.139 Q 541.738 239.19 540.771 237.581 L 540.771 237.581 L 540.771 237.581 Q 539.805 235.973 539.805 234.11 L 539.805 234.11 L 539.805 234.11 Q 539.805 231.596 540.947 229.188 L 540.947 229.188 L 540.947 229.188 Q 542.09 226.78 544.015 225.268 L 544.015 225.268 L 544.015 225.268 Q 545.939 223.756 548.172 223.756 L 548.172 223.756 L 548.172 223.756 Q 549.859 223.756 551.31 224.776 L 551.31 224.776 L 551.31 224.776 Q 552.76 225.795 553.612 227.404 L 553.612 227.404 L 553.612 227.404 Q 554.465 229.012 554.465 230.664 L 554.465 230.664 L 554.465 230.664 Q 554.465 231.367 554.359 232.071 L 554.359 232.071 L 554.359 232.071 Q 554.254 232.774 554.236 232.949 L 554.236 232.949 L 554.236 232.949 Q 554.096 233.776 554.025 234.408 L 554.025 234.408 L 554.025 234.408 Q 553.955 235.041 553.955 235.78 L 553.955 235.78 L 553.955 235.78 Q 553.955 236.817 554.263 237.265 L 554.263 237.265 L 554.263 237.265 Q 554.57 237.713 555.186 237.713 L 555.186 237.713 L 555.186 237.713 Q 555.344 237.713 555.511 237.59 L 555.511 237.59 L 555.511 237.59 Q 555.678 237.467 555.906 237.238 L 555.906 237.238 L 555.906 237.238 Q 555.941 237.203 556.108 237.054 L 556.108 237.054 L 556.108 237.054 Q 556.275 236.905 556.416 236.852 L 556.416 236.852 L 556.416 236.852 Z  M 546.766 237.713 L 546.766 237.713 Q 548.822 237.713 549.947 236.571 L 549.947 236.571 L 549.947 236.571 Q 551.072 235.428 551.485 233.96 L 551.485 233.96 L 551.485 233.96 Q 551.898 232.492 552.25 230.137 L 552.25 230.137 L 552.25 230.137 Q 552.25 229.592 551.6 228.889 L 551.6 228.889 L 551.6 228.889 Q 550.949 228.186 550.044 227.676 L 550.044 227.676 L 550.044 227.676 Q 549.139 227.166 548.418 227.166 L 548.418 227.166 L 548.418 227.166 Q 546.607 227.166 545.184 228.177 L 545.184 228.177 L 545.184 228.177 Q 543.76 229.188 542.978 230.77 L 542.978 230.77 L 542.978 230.77 Q 542.195 232.352 542.195 233.987 L 542.195 233.987 L 542.195 233.987 Q 542.195 235.059 542.863 235.911 L 542.863 235.911 L 542.863 235.911 Q 543.531 236.764 544.595 237.238 L 544.595 237.238 L 544.595 237.238 Q 545.658 237.713 546.766 237.713 L 546.766 237.713 L 546.766 237.713 Z  M 578.705 234.76 L 578.723 232.035 L 578.723 232.035 Q 578.723 231.051 578.23 230.058 L 578.23 230.058 L 578.23 230.058 Q 577.738 229.065 576.807 228.423 L 576.807 228.423 L 576.807 228.423 Q 575.875 227.781 574.627 227.781 L 574.627 227.781 L 574.627 227.781 Q 573.977 227.781 573.15 228.124 L 573.15 228.124 L 573.15 228.124 Q 572.324 228.467 571.621 229.082 L 571.621 229.082 L 571.621 229.082 Q 570.918 229.697 570.619 230.453 L 570.619 230.453 L 570.443 237.608 L 570.514 238.135 L 570.584 238.68 L 570.584 238.68 Q 570.584 239.559 570.25 240.192 L 570.25 240.192 L 570.25 240.192 Q 569.916 240.824 569.424 240.824 L 569.424 240.824 L 569.424 240.824 Q 568.65 240.824 568.167 240.42 L 568.167 240.42 L 568.167 240.42 Q 567.684 240.016 567.684 238.908 L 567.684 238.908 L 567.736 238.539 L 567.736 238.539 Q 567.877 237.326 567.877 237.115 L 567.877 237.115 L 567.947 231.86 L 567.947 231.86 Q 567.965 230.822 567.561 229.777 L 567.561 229.777 L 567.561 229.777 Q 567.156 228.731 566.409 228.054 L 566.409 228.054 L 566.409 228.054 Q 565.662 227.377 564.713 227.377 L 564.713 227.377 L 564.713 227.377 Q 563.412 227.377 562.674 227.711 L 562.674 227.711 L 562.674 227.711 Q 561.936 228.045 561.628 228.766 L 561.628 228.766 L 561.628 228.766 Q 561.32 229.487 561.32 230.717 L 561.32 230.717 L 561.32 231.403 L 561.32 231.403 Q 561.32 232.369 561.426 234.233 L 561.426 234.233 L 561.426 234.233 Q 561.426 234.549 561.461 235.076 L 561.461 235.076 L 561.777 239.119 L 561.777 239.119 Q 561.777 239.629 561.531 240.033 L 561.531 240.033 L 561.531 240.033 Q 561.285 240.438 560.96 240.666 L 560.96 240.666 L 560.96 240.666 Q 560.635 240.895 560.441 240.895 L 560.441 240.895 L 560.441 240.895 Q 559.668 240.895 559.299 240.385 L 559.299 240.385 L 559.299 240.385 Q 558.93 239.875 558.93 238.504 L 558.93 238.504 L 558.93 238.328 L 558.947 237.906 L 558.947 237.906 Q 558.965 237.783 558.965 237.502 L 558.965 237.502 L 558.947 234.672 L 558.947 234.672 Q 558.93 234.039 558.93 233.02 L 558.93 233.02 L 558.93 230.207 L 558.93 230.207 Q 558.93 228.098 559.009 226.903 L 559.009 226.903 L 559.009 226.903 Q 559.088 225.707 559.352 225.057 L 559.352 225.057 L 559.352 225.057 Q 559.615 224.406 560.143 224.406 L 560.143 224.406 L 560.143 224.406 Q 561.18 224.406 561.18 226.27 L 561.18 226.27 L 561.18 226.586 L 561.18 226.586 Q 561.426 225.918 561.988 225.329 L 561.988 225.329 L 561.988 225.329 Q 562.551 224.74 563.28 224.371 L 563.28 224.371 L 563.28 224.371 Q 564.01 224.002 564.748 224.002 L 564.748 224.002 L 564.748 224.002 Q 565.68 224.002 566.84 224.477 L 566.84 224.477 L 566.84 224.477 Q 568 224.951 568.844 225.962 L 568.844 225.962 L 568.844 225.962 Q 569.688 226.973 569.688 228.485 L 569.688 228.485 L 569.688 228.485 Q 569.934 227.289 570.786 226.384 L 570.786 226.384 L 570.786 226.384 Q 571.639 225.479 572.746 224.995 L 572.746 224.995 L 572.746 224.995 Q 573.854 224.512 574.768 224.512 L 574.768 224.512 L 574.768 224.512 Q 577.844 224.512 579.54 226.718 L 579.54 226.718 L 579.54 226.718 Q 581.236 228.924 581.236 233.547 L 581.236 233.547 L 581.236 233.547 Q 581.236 236.694 580.832 238.891 L 580.832 238.891 L 580.832 238.891 Q 580.428 241.088 579.602 241.088 L 579.602 241.088 L 579.602 241.088 Q 579.162 241.088 578.784 240.745 L 578.784 240.745 L 578.784 240.745 Q 578.406 240.403 578.178 239.893 L 578.178 239.893 L 578.178 239.893 Q 577.949 239.383 577.949 238.944 L 577.949 238.944 L 577.949 238.944 Q 577.949 238.346 578.046 237.898 L 578.046 237.898 L 578.046 237.898 Q 578.143 237.449 578.318 236.905 L 578.318 236.905 L 578.318 236.905 Q 578.512 236.324 578.608 235.867 L 578.608 235.867 L 578.608 235.867 Q 578.705 235.41 578.705 234.76 L 578.705 234.76 L 578.705 234.76 Z " fill="rgb(68,67,67)"/></g></g></g></svg>