<?xml version="1.0" encoding="UTF-8" standalone="no"?><!-- Generator: Gravit.io --><svg xmlns="http://www.w3.org/2000/svg" xmlns:xlink="http://www.w3.org/1999/xlink" style="isolation:isolate" viewBox="0 0 26 26" width="26pt" height="26pt"><defs><clipPath id="_clipPath_VCt0oGsgFKqb9BnV5rFQmSKIY4zsazyf"><rect width="26" height="26"/></clipPath></defs><g clip-path="url(#_clipPath_VCt0oGsgFKqb9BnV5rFQmSKIY4zsazyf)"><path d=" M 24.25 12.25 L 1.75 12.25 C 1.336 12.25 1 12.586 1 13 C 1 13.414 1.336 13.75 1.75 13.75 L 24.25 13.75 C 24.664 13.75 25 13.414 25 13 C 25 12.586 24.664 12.25 24.25 12.25 Z " fill="rgb(255,255,255)"/><path d=" M 1.75 7.75 L 24.25 7.75 C 24.664 7.75 25 7.414 25 7 C 25 6.586 24.664 6.25 24.25 6.25 L 1.75 6.25 C 1.336 6.25 1 6.586 1 7 C 1 7.414 1.336 7.75 1.75 7.75 Z " fill="rgb(255,255,255)"/><path d=" M 24.25 18.25 L 1.75 18.25 C 1.336 18.25 1 18.586 1 19 C 1 19.414 1.336 19.75 1.75 19.75 L 24.25 19.75 C 24.664 19.75 25 19.414 25 19 C 25 18.586 24.664 18.25 24.25 18.25 Z " fill="rgb(255,255,255)"/></g></svg>