<?xml version="1.0" encoding="UTF-8" standalone="no"?><!-- Generator: Gravit.io --><svg xmlns="http://www.w3.org/2000/svg" xmlns:xlink="http://www.w3.org/1999/xlink" style="isolation:isolate" viewBox="313 182 24 24" width="24pt" height="24pt"><defs><clipPath id="_clipPath_aNJ3raPbLGwC3UHy5Otq5VTcBTQ36oLJ"><rect x="313" y="182" width="24" height="24"/></clipPath></defs><g clip-path="url(#_clipPath_aNJ3raPbLGwC3UHy5Otq5VTcBTQ36oLJ)"><path d=" M 337 194 C 337 187.383 331.617 182 325 182 C 318.383 182 313 187.383 313 194 C 313 197.384 314.413 200.439 316.674 202.622 C 316.727 202.691 316.789 202.747 316.863 202.794 C 319.004 204.777 321.858 206 325 206 C 328.142 206 330.996 204.777 333.137 202.794 C 333.211 202.747 333.273 202.691 333.326 202.622 C 335.587 200.439 337 197.384 337 194 Z  M 325 183.5 C 330.79 183.5 335.5 188.21 335.5 194 C 335.5 196.455 334.647 198.711 333.23 200.501 C 332.579 198.403 330.722 196.761 328.202 196.005 C 329.575 195.011 330.474 193.4 330.474 191.581 C 330.474 188.566 328.019 186.114 325 186.114 C 321.981 186.114 319.526 188.566 319.526 191.581 C 319.526 193.4 320.425 195.011 321.798 196.005 C 319.278 196.761 317.421 198.403 316.77 200.501 C 315.353 198.711 314.5 196.455 314.5 194 C 314.5 188.21 319.21 183.5 325 183.5 Z  M 321.026 191.581 C 321.026 189.394 322.809 187.614 325 187.614 C 327.191 187.614 328.974 189.394 328.974 191.581 C 328.974 193.768 327.191 195.547 325 195.547 C 322.809 195.547 321.026 193.768 321.026 191.581 Z  M 318.031 201.832 C 318.256 199.082 321.172 197.047 325 197.047 C 328.828 197.047 331.744 199.082 331.969 201.832 C 330.113 203.486 327.676 204.5 325 204.5 C 322.324 204.5 319.887 203.486 318.031 201.832 Z " fill="rgb(255,255,255)"/></g></svg>