<?xml version="1.0" encoding="UTF-8" standalone="no"?><!-- Generator: Gravit.io --><svg xmlns="http://www.w3.org/2000/svg" xmlns:xlink="http://www.w3.org/1999/xlink" style="isolation:isolate" viewBox="0 0 256 256" width="256pt" height="256pt"><defs><clipPath id="_clipPath_56N4oSFVhTE8wUaF3VVwyv39Og4Q4Loq"><rect width="256" height="256"/></clipPath></defs><g clip-path="url(#_clipPath_56N4oSFVhTE8wUaF3VVwyv39Og4Q4Loq)"><g clip-path="url(#_clipPath_5ARGEogrV9IDmaMajyuGYyiCOqBHtAu7)"><text transform="matrix(1,0,0,1,13,24.917)" style="font-family:'Open Sans';font-weight:400;font-size:11px;font-style:normal;fill:#000000;stroke:none;">Lorem </text><text transform="matrix(1,0,0,1,52.49,24.917)" style="font-family:'Open Sans';font-weight:400;font-size:11px;font-style:normal;fill:#000000;stroke:none;">ipsum </text><text transform="matrix(1,0,0,1,90.488,24.917)" style="font-family:'Open Sans';font-weight:400;font-size:11px;font-style:normal;fill:#000000;stroke:none;">dolor </text><text transform="matrix(1,0,0,1,124.032,24.917)" style="font-family:'Open Sans';font-weight:400;font-size:11px;font-style:normal;fill:#000000;stroke:none;">sit </text><text transform="matrix(1,0,0,1,142.188,24.917)" style="font-family:'Open Sans';font-weight:400;font-size:11px;font-style:normal;fill:#000000;stroke:none;">amet, </text><text transform="matrix(1,0,0,1,177.532,24.917)" style="font-family:'Open Sans';font-weight:400;font-size:11px;font-style:normal;fill:#000000;stroke:none;">consectetur </text><text transform="matrix(1,0,0,1,13,39.897)" style="font-family:'Open Sans';font-weight:400;font-size:11px;font-style:normal;fill:#000000;stroke:none;">adipiscing </text><text transform="matrix(1,0,0,1,72.966,39.897)" style="font-family:'Open Sans';font-weight:400;font-size:11px;font-style:normal;fill:#000000;stroke:none;">elit. </text><text transform="matrix(1,0,0,1,100.27,39.897)" style="font-family:'Open Sans';font-weight:400;font-size:11px;font-style:normal;fill:#000000;stroke:none;">Nunc </text><text transform="matrix(1,0,0,1,136.061,39.897)" style="font-family:'Open Sans';font-weight:400;font-size:11px;font-style:normal;fill:#000000;stroke:none;">hendrerit </text><text transform="matrix(1,0,0,1,193.052,39.897)" style="font-family:'Open Sans';font-weight:400;font-size:11px;font-style:normal;fill:#000000;stroke:none;">lacus </text><text transform="matrix(1,0,0,1,227.945,39.897)" style="font-family:'Open Sans';font-weight:400;font-size:11px;font-style:normal;fill:#000000;stroke:none;">et </text><text transform="matrix(1,0,0,1,13,54.877)" style="font-family:'Open Sans';font-weight:400;font-size:11px;font-style:normal;fill:#000000;stroke:none;">efficitur </text><text transform="matrix(1,0,0,1,63.104,54.877)" style="font-family:'Open Sans';font-weight:400;font-size:11px;font-style:normal;fill:#000000;stroke:none;">tincidunt. </text><text transform="matrix(1,0,0,1,122.13,54.877)" style="font-family:'Open Sans';font-weight:400;font-size:11px;font-style:normal;fill:#000000;stroke:none;">Nunc </text><text transform="matrix(1,0,0,1,159.698,54.877)" style="font-family:'Open Sans';font-weight:400;font-size:11px;font-style:normal;fill:#000000;stroke:none;">gravida </text><text transform="matrix(1,0,0,1,208.019,54.877)" style="font-family:'Open Sans';font-weight:400;font-size:11px;font-style:normal;fill:#000000;stroke:none;">purus </text><text transform="matrix(1,0,0,1,13,69.857)" style="font-family:'Open Sans';font-weight:400;font-size:11px;font-style:normal;fill:#000000;stroke:none;">dolor, </text><text transform="matrix(1,0,0,1,46.016,69.857)" style="font-family:'Open Sans';font-weight:400;font-size:11px;font-style:normal;fill:#000000;stroke:none;">sed </text><text transform="matrix(1,0,0,1,67.194,69.857)" style="font-family:'Open Sans';font-weight:400;font-size:11px;font-style:normal;fill:#000000;stroke:none;">efficitur </text><text transform="matrix(1,0,0,1,109.781,69.857)" style="font-family:'Open Sans';font-weight:400;font-size:11px;font-style:normal;fill:#000000;stroke:none;">odio </text><text transform="matrix(1,0,0,1,135.611,69.857)" style="font-family:'Open Sans';font-weight:400;font-size:11px;font-style:normal;fill:#000000;stroke:none;">pulvinar </text><text transform="matrix(1,0,0,1,180.556,69.857)" style="font-family:'Open Sans';font-weight:400;font-size:11px;font-style:normal;fill:#000000;stroke:none;">vitae. </text><text transform="matrix(1,0,0,1,210.967,69.857)" style="font-family:'Open Sans';font-weight:400;font-size:11px;font-style:normal;fill:#000000;stroke:none;">Nunc </text><text transform="matrix(1,0,0,1,13,84.837)" style="font-family:'Open Sans';font-weight:400;font-size:11px;font-style:normal;fill:#000000;stroke:none;">at </text><text transform="matrix(1,0,0,1,28.114,84.837)" style="font-family:'Open Sans';font-weight:400;font-size:11px;font-style:normal;fill:#000000;stroke:none;">purus </text><text transform="matrix(1,0,0,1,63.209,84.837)" style="font-family:'Open Sans';font-weight:400;font-size:11px;font-style:normal;fill:#000000;stroke:none;">sed </text><text transform="matrix(1,0,0,1,86.482,84.837)" style="font-family:'Open Sans';font-weight:400;font-size:11px;font-style:normal;fill:#000000;stroke:none;">leo </text><text transform="matrix(1,0,0,1,107.193,84.837)" style="font-family:'Open Sans';font-weight:400;font-size:11px;font-style:normal;fill:#000000;stroke:none;">suscipit </text><text transform="matrix(1,0,0,1,150.978,84.837)" style="font-family:'Open Sans';font-weight:400;font-size:11px;font-style:normal;fill:#000000;stroke:none;">accumsan. </text><text transform="matrix(1,0,0,1,210.709,84.837)" style="font-family:'Open Sans';font-weight:400;font-size:11px;font-style:normal;fill:#000000;stroke:none;">Proin </text><text transform="matrix(1,0,0,1,13,99.817)" style="font-family:'Open Sans';font-weight:400;font-size:11px;font-style:normal;fill:#000000;stroke:none;">fermentum, </text><text transform="matrix(1,0,0,1,81.591,99.817)" style="font-family:'Open Sans';font-weight:400;font-size:11px;font-style:normal;fill:#000000;stroke:none;">dolor </text><text transform="matrix(1,0,0,1,116.377,99.817)" style="font-family:'Open Sans';font-weight:400;font-size:11px;font-style:normal;fill:#000000;stroke:none;">id </text><text transform="matrix(1,0,0,1,133.385,99.817)" style="font-family:'Open Sans';font-weight:400;font-size:11px;font-style:normal;fill:#000000;stroke:none;">congue </text><text transform="matrix(1,0,0,1,178.451,99.817)" style="font-family:'Open Sans';font-weight:400;font-size:11px;font-style:normal;fill:#000000;stroke:none;">vestibulum, </text><text transform="matrix(1,0,0,1,13,114.797)" style="font-family:'Open Sans';font-weight:400;font-size:11px;font-style:normal;fill:#000000;stroke:none;">nunc </text><text transform="matrix(1,0,0,1,44.56,114.797)" style="font-family:'Open Sans';font-weight:400;font-size:11px;font-style:normal;fill:#000000;stroke:none;">diam </text><text transform="matrix(1,0,0,1,76.502,114.797)" style="font-family:'Open Sans';font-weight:400;font-size:11px;font-style:normal;fill:#000000;stroke:none;">consectetur </text><text transform="matrix(1,0,0,1,143.039,114.797)" style="font-family:'Open Sans';font-weight:400;font-size:11px;font-style:normal;fill:#000000;stroke:none;">lacus, </text><text transform="matrix(1,0,0,1,177.941,114.797)" style="font-family:'Open Sans';font-weight:400;font-size:11px;font-style:normal;fill:#000000;stroke:none;">ut </text><text transform="matrix(1,0,0,1,194.645,114.797)" style="font-family:'Open Sans';font-weight:400;font-size:11px;font-style:normal;fill:#000000;stroke:none;">faucibus </text><text transform="matrix(1,0,0,1,13,129.777)" style="font-family:'Open Sans';font-weight:400;font-size:11px;font-style:normal;fill:#000000;stroke:none;">magna </text><text transform="matrix(1,0,0,1,51.103,129.777)" style="font-family:'Open Sans';font-weight:400;font-size:11px;font-style:normal;fill:#000000;stroke:none;">diam </text><text transform="matrix(1,0,0,1,79.833,129.777)" style="font-family:'Open Sans';font-weight:400;font-size:11px;font-style:normal;fill:#000000;stroke:none;">sit </text><text transform="matrix(1,0,0,1,94.603,129.777)" style="font-family:'Open Sans';font-weight:400;font-size:11px;font-style:normal;fill:#000000;stroke:none;">amet </text><text transform="matrix(1,0,0,1,123.865,129.777)" style="font-family:'Open Sans';font-weight:400;font-size:11px;font-style:normal;fill:#000000;stroke:none;">lorem. </text></g><defs><clipPath id="_clipPath_5ARGEogrV9IDmaMajyuGYyiCOqBHtAu7"><rect x="0" y="0" width="227" height="119.84" transform="matrix(1,0,0,1,13,13.16)"/></clipPath></defs><rect x="14" y="146" width="221" height="78" transform="matrix(1,0,0,1,0,0)" fill="rgb(235,235,235)"/><g clip-path="url(#_clipPath_CnSgCXW655xdi5kuorJo2o0jhxcEGRpH)"><text transform="matrix(1,0,0,1,84.402,192.759)" style="font-family:'Open Sans';font-weight:400;font-size:20px;font-style:normal;fill:#000000;stroke:none;">KONTEN</text></g><defs><clipPath id="_clipPath_CnSgCXW655xdi5kuorJo2o0jhxcEGRpH"><rect x="0" y="0" width="106" height="27.236" transform="matrix(1,0,0,1,72.5,171.382)"/></clipPath></defs></g></svg>