<?xml version="1.0" encoding="UTF-8" standalone="no"?><!-- Generator: Gravit.io --><svg xmlns="http://www.w3.org/2000/svg" xmlns:xlink="http://www.w3.org/1999/xlink" style="isolation:isolate" viewBox="0 0 256 256" width="256pt" height="256pt"><defs><clipPath id="_clipPath_lEryrR27SFI4dhtv9SQmA9lsUi0nw6JS"><rect width="256" height="256"/></clipPath></defs><g clip-path="url(#_clipPath_lEryrR27SFI4dhtv9SQmA9lsUi0nw6JS)"><g clip-path="url(#_clipPath_QqHZhCjR76xxYJemHTijcRw81u8cGfGD)"><text transform="matrix(1,0,0,1,12,117.757)" style="font-family:'Open Sans';font-weight:400;font-size:11px;font-style:normal;fill:#000000;stroke:none;">Lorem </text><text transform="matrix(1,0,0,1,51.49,117.757)" style="font-family:'Open Sans';font-weight:400;font-size:11px;font-style:normal;fill:#000000;stroke:none;">ipsum </text><text transform="matrix(1,0,0,1,89.488,117.757)" style="font-family:'Open Sans';font-weight:400;font-size:11px;font-style:normal;fill:#000000;stroke:none;">dolor </text><text transform="matrix(1,0,0,1,123.032,117.757)" style="font-family:'Open Sans';font-weight:400;font-size:11px;font-style:normal;fill:#000000;stroke:none;">sit </text><text transform="matrix(1,0,0,1,141.188,117.757)" style="font-family:'Open Sans';font-weight:400;font-size:11px;font-style:normal;fill:#000000;stroke:none;">amet, </text><text transform="matrix(1,0,0,1,176.532,117.757)" style="font-family:'Open Sans';font-weight:400;font-size:11px;font-style:normal;fill:#000000;stroke:none;">consectetur </text><text transform="matrix(1,0,0,1,12,132.737)" style="font-family:'Open Sans';font-weight:400;font-size:11px;font-style:normal;fill:#000000;stroke:none;">adipiscing </text><text transform="matrix(1,0,0,1,71.966,132.737)" style="font-family:'Open Sans';font-weight:400;font-size:11px;font-style:normal;fill:#000000;stroke:none;">elit. </text><text transform="matrix(1,0,0,1,99.27,132.737)" style="font-family:'Open Sans';font-weight:400;font-size:11px;font-style:normal;fill:#000000;stroke:none;">Nunc </text><text transform="matrix(1,0,0,1,135.061,132.737)" style="font-family:'Open Sans';font-weight:400;font-size:11px;font-style:normal;fill:#000000;stroke:none;">hendrerit </text><text transform="matrix(1,0,0,1,192.052,132.737)" style="font-family:'Open Sans';font-weight:400;font-size:11px;font-style:normal;fill:#000000;stroke:none;">lacus </text><text transform="matrix(1,0,0,1,226.945,132.737)" style="font-family:'Open Sans';font-weight:400;font-size:11px;font-style:normal;fill:#000000;stroke:none;">et </text><text transform="matrix(1,0,0,1,12,147.717)" style="font-family:'Open Sans';font-weight:400;font-size:11px;font-style:normal;fill:#000000;stroke:none;">efficitur </text><text transform="matrix(1,0,0,1,62.104,147.717)" style="font-family:'Open Sans';font-weight:400;font-size:11px;font-style:normal;fill:#000000;stroke:none;">tincidunt. </text><text transform="matrix(1,0,0,1,121.13,147.717)" style="font-family:'Open Sans';font-weight:400;font-size:11px;font-style:normal;fill:#000000;stroke:none;">Nunc </text><text transform="matrix(1,0,0,1,158.698,147.717)" style="font-family:'Open Sans';font-weight:400;font-size:11px;font-style:normal;fill:#000000;stroke:none;">gravida </text><text transform="matrix(1,0,0,1,207.019,147.717)" style="font-family:'Open Sans';font-weight:400;font-size:11px;font-style:normal;fill:#000000;stroke:none;">purus </text><text transform="matrix(1,0,0,1,12,162.697)" style="font-family:'Open Sans';font-weight:400;font-size:11px;font-style:normal;fill:#000000;stroke:none;">dolor, </text><text transform="matrix(1,0,0,1,45.016,162.697)" style="font-family:'Open Sans';font-weight:400;font-size:11px;font-style:normal;fill:#000000;stroke:none;">sed </text><text transform="matrix(1,0,0,1,66.194,162.697)" style="font-family:'Open Sans';font-weight:400;font-size:11px;font-style:normal;fill:#000000;stroke:none;">efficitur </text><text transform="matrix(1,0,0,1,108.781,162.697)" style="font-family:'Open Sans';font-weight:400;font-size:11px;font-style:normal;fill:#000000;stroke:none;">odio </text><text transform="matrix(1,0,0,1,134.611,162.697)" style="font-family:'Open Sans';font-weight:400;font-size:11px;font-style:normal;fill:#000000;stroke:none;">pulvinar </text><text transform="matrix(1,0,0,1,179.556,162.697)" style="font-family:'Open Sans';font-weight:400;font-size:11px;font-style:normal;fill:#000000;stroke:none;">vitae. </text><text transform="matrix(1,0,0,1,209.967,162.697)" style="font-family:'Open Sans';font-weight:400;font-size:11px;font-style:normal;fill:#000000;stroke:none;">Nunc </text><text transform="matrix(1,0,0,1,12,177.677)" style="font-family:'Open Sans';font-weight:400;font-size:11px;font-style:normal;fill:#000000;stroke:none;">at </text><text transform="matrix(1,0,0,1,27.114,177.677)" style="font-family:'Open Sans';font-weight:400;font-size:11px;font-style:normal;fill:#000000;stroke:none;">purus </text><text transform="matrix(1,0,0,1,62.209,177.677)" style="font-family:'Open Sans';font-weight:400;font-size:11px;font-style:normal;fill:#000000;stroke:none;">sed </text><text transform="matrix(1,0,0,1,85.482,177.677)" style="font-family:'Open Sans';font-weight:400;font-size:11px;font-style:normal;fill:#000000;stroke:none;">leo </text><text transform="matrix(1,0,0,1,106.193,177.677)" style="font-family:'Open Sans';font-weight:400;font-size:11px;font-style:normal;fill:#000000;stroke:none;">suscipit </text><text transform="matrix(1,0,0,1,149.978,177.677)" style="font-family:'Open Sans';font-weight:400;font-size:11px;font-style:normal;fill:#000000;stroke:none;">accumsan. </text><text transform="matrix(1,0,0,1,209.709,177.677)" style="font-family:'Open Sans';font-weight:400;font-size:11px;font-style:normal;fill:#000000;stroke:none;">Proin </text><text transform="matrix(1,0,0,1,12,192.657)" style="font-family:'Open Sans';font-weight:400;font-size:11px;font-style:normal;fill:#000000;stroke:none;">fermentum, </text><text transform="matrix(1,0,0,1,80.591,192.657)" style="font-family:'Open Sans';font-weight:400;font-size:11px;font-style:normal;fill:#000000;stroke:none;">dolor </text><text transform="matrix(1,0,0,1,115.377,192.657)" style="font-family:'Open Sans';font-weight:400;font-size:11px;font-style:normal;fill:#000000;stroke:none;">id </text><text transform="matrix(1,0,0,1,132.385,192.657)" style="font-family:'Open Sans';font-weight:400;font-size:11px;font-style:normal;fill:#000000;stroke:none;">congue </text><text transform="matrix(1,0,0,1,177.451,192.657)" style="font-family:'Open Sans';font-weight:400;font-size:11px;font-style:normal;fill:#000000;stroke:none;">vestibulum, </text><text transform="matrix(1,0,0,1,12,207.637)" style="font-family:'Open Sans';font-weight:400;font-size:11px;font-style:normal;fill:#000000;stroke:none;">nunc </text><text transform="matrix(1,0,0,1,43.56,207.637)" style="font-family:'Open Sans';font-weight:400;font-size:11px;font-style:normal;fill:#000000;stroke:none;">diam </text><text transform="matrix(1,0,0,1,75.502,207.637)" style="font-family:'Open Sans';font-weight:400;font-size:11px;font-style:normal;fill:#000000;stroke:none;">consectetur </text><text transform="matrix(1,0,0,1,142.039,207.637)" style="font-family:'Open Sans';font-weight:400;font-size:11px;font-style:normal;fill:#000000;stroke:none;">lacus, </text><text transform="matrix(1,0,0,1,176.941,207.637)" style="font-family:'Open Sans';font-weight:400;font-size:11px;font-style:normal;fill:#000000;stroke:none;">ut </text><text transform="matrix(1,0,0,1,193.645,207.637)" style="font-family:'Open Sans';font-weight:400;font-size:11px;font-style:normal;fill:#000000;stroke:none;">faucibus </text><text transform="matrix(1,0,0,1,12,222.617)" style="font-family:'Open Sans';font-weight:400;font-size:11px;font-style:normal;fill:#000000;stroke:none;">magna </text><text transform="matrix(1,0,0,1,50.103,222.617)" style="font-family:'Open Sans';font-weight:400;font-size:11px;font-style:normal;fill:#000000;stroke:none;">diam </text><text transform="matrix(1,0,0,1,78.833,222.617)" style="font-family:'Open Sans';font-weight:400;font-size:11px;font-style:normal;fill:#000000;stroke:none;">sit </text><text transform="matrix(1,0,0,1,93.603,222.617)" style="font-family:'Open Sans';font-weight:400;font-size:11px;font-style:normal;fill:#000000;stroke:none;">amet </text><text transform="matrix(1,0,0,1,122.865,222.617)" style="font-family:'Open Sans';font-weight:400;font-size:11px;font-style:normal;fill:#000000;stroke:none;">lorem. </text></g><defs><clipPath id="_clipPath_QqHZhCjR76xxYJemHTijcRw81u8cGfGD"><rect x="0" y="0" width="227" height="119.84" transform="matrix(1,0,0,1,12,106)"/></clipPath></defs><rect x="14" y="16" width="221" height="78" transform="matrix(1,0,0,1,0,0)" fill="rgb(235,235,235)"/><g clip-path="url(#_clipPath_343bbn8fIENwSBa2mkTNX3CxdvqEatVp)"><text transform="matrix(1,0,0,1,84.402,62.759)" style="font-family:'Open Sans';font-weight:400;font-size:20px;font-style:normal;fill:#000000;stroke:none;">KONTEN</text></g><defs><clipPath id="_clipPath_343bbn8fIENwSBa2mkTNX3CxdvqEatVp"><rect x="0" y="0" width="106" height="27.236" transform="matrix(1,0,0,1,72.5,41.382)"/></clipPath></defs></g></svg>